<svg xmlns="http://www.w3.org/2000/svg" viewBox="0 0 1706.5 1706.5" width="64" height="64"><rect width="100%" height="100%" fill="#000"/><path d="M324.2 1122.2L488.2 1122.2L488.2 584.2L324.2 584.2L324.2 483.2L616.2 483.2L616.2 1122.2L781.2 1122.2L781.2 1223.2L324.2 1223.2ZM927.2 483.2L1055.2 483.2L1055.2 798.2L1060.2 798.2L1061.6 794.7L1063.2 791.3L1064.7 787.9L1066.4 784.5L1068.1 781.2L1069.9 777.9L1071.7 774.7L1073.6 771.5L1075.6 768.3L1077.6 765.2L1079.7 762.1L1081.8 759.1L1084.0 756.1L1086.3 753.1L1088.7 750.2L1091.1 747.3L1093.6 744.5L1096.1 741.7L1098.7 738.9L1101.4 736.2L1104.1 733.5L1106.9 730.9L1109.8 728.3L1112.7 725.7L1115.7 723.2L1118.8 720.8L1122.0 718.6L1125.3 716.4L1128.7 714.3L1132.2 712.4L1135.7 710.5L1139.4 708.8L1143.2 707.1L1147.1 705.6L1151.0 704.1L1155.1 702.8L1159.2 701.6L1163.5 700.5L1167.8 699.5L1172.3 698.6L1176.8 697.8L1181.4 697.1L1186.1 696.5L1191.0 696.0L1195.9 695.7L1200.9 695.4L1206.0 695.3L1211.2 695.2L1217.5 695.3L1223.7 695.6L1229.8 696.0L1235.7 696.6L1241.6 697.4L1247.4 698.4L1253.1 699.5L1258.7 700.8L1264.2 702.3L1269.6 704.0L1274.9 705.8L1280.1 707.8L1285.2 710.0L1290.2 712.4L1295.1 714.9L1299.9 717.6L1304.6 720.5L1309.2 723.6L1313.7 726.9L1318.1 730.3L1322.4 733.9L1326.6 737.6L1330.7 741.6L1334.7 745.7L1338.6 750.0L1342.3 754.4L1345.8 759.0L1349.2 763.7L1352.4 768.6L1355.5 773.7L1358.4 778.9L1361.1 784.2L1363.6 789.7L1366.0 795.3L1368.3 801.1L1370.3 807.1L1372.2 813.2L1374.0 819.4L1375.5 825.8L1376.9 832.4L1378.2 839.1L1379.2 845.9L1380.1 852.9L1380.9 860.1L1381.5 867.4L1381.9 874.8L1382.1 882.4L1382.2 890.2L1382.2 1223.2L1254.2 1223.2L1254.2 908.2L1254.0 899.1L1253.5 890.3L1252.7 882.0L1251.5 874.0L1250.0 866.4L1248.1 859.2L1245.9 852.4L1243.4 846.0L1240.6 840.0L1237.4 834.3L1233.8 829.1L1230.0 824.2L1225.7 819.7L1221.2 815.6L1216.3 812.0L1211.1 808.6L1205.5 805.7L1199.6 803.2L1193.4 801.1L1186.8 799.3L1179.9 798.0L1172.7 797.0L1165.1 796.4L1157.2 796.2L1155.5 796.2L1153.9 796.2L1152.2 796.3L1150.6 796.3L1149.0 796.4L1147.3 796.5L1145.7 796.6L1144.1 796.8L1142.5 796.9L1140.9 797.1L1139.3 797.3L1137.7 797.4L1136.1 797.7L1134.5 797.9L1133.0 798.2L1131.4 798.4L1129.9 798.7L1128.3 799.0L1126.8 799.3L1125.3 799.7L1123.7 800.0L1122.2 800.4L1120.7 800.8L1119.2 801.2L1117.7 801.6L1116.2 802.1L1114.8 802.5L1113.3 803.0L1111.9 803.5L1110.4 804.0L1109.0 804.6L1107.6 805.1L1106.2 805.7L1104.8 806.3L1103.4 806.9L1102.1 807.6L1100.7 808.2L1099.4 808.9L1098.1 809.6L1096.8 810.3L1095.5 811.0L1094.2 811.8L1092.9 812.6L1091.6 813.4L1090.4 814.2L1089.1 815.0L1087.9 815.8L1086.7 816.7L1085.5 817.6L1084.3 818.5L1083.2 819.4L1082.0 820.3L1080.9 821.3L1079.8 822.2L1078.8 823.2L1077.7 824.2L1076.7 825.2L1075.7 826.2L1074.7 827.3L1073.7 828.3L1072.8 829.4L1071.8 830.5L1070.9 831.6L1070.0 832.7L1069.2 833.8L1068.3 835.0L1067.5 836.1L1066.7 837.3L1065.9 838.5L1065.2 839.7L1064.4 841.0L1063.7 842.2L1063.0 843.5L1062.3 844.7L1061.7 846.0L1061.1 847.4L1060.5 848.7L1060.0 850.1L1059.5 851.5L1059.0 852.9L1058.5 854.3L1058.1 855.7L1057.7 857.2L1057.3 858.7L1057.0 860.2L1056.7 861.7L1056.4 863.3L1056.1 864.9L1055.9 866.5L1055.7 868.1L1055.6 869.7L1055.4 871.4L1055.3 873.0L1055.3 874.7L1055.2 876.5L1055.2 878.2L1055.2 1223.2L927.2 1223.2Z" fill="#fff"/></svg>
